<?xml version="1.0" encoding="UTF-8" standalone="no"?>
<!-- Created with Inkscape (http://www.inkscape.org/) -->

<svg
   xmlns:osb="http://www.openswatchbook.org/uri/2009/osb"
   xmlns:dc="http://purl.org/dc/elements/1.1/"
   xmlns:cc="http://creativecommons.org/ns#"
   xmlns:rdf="http://www.w3.org/1999/02/22-rdf-syntax-ns#"
   xmlns:svg="http://www.w3.org/2000/svg"
   xmlns="http://www.w3.org/2000/svg"
   xmlns:xlink="http://www.w3.org/1999/xlink"
   xmlns:sodipodi="http://sodipodi.sourceforge.net/DTD/sodipodi-0.dtd"
   xmlns:inkscape="http://www.inkscape.org/namespaces/inkscape"
   width="2000mm"
   height="400mm"
   viewBox="0 0 2000 400"
   version="1.1"
   id="svg8"
   inkscape:version="0.92.1 r15371"
   sodipodi:docname="ekg.svg">
  <defs
     id="defs2">
    <linearGradient
       inkscape:collect="always"
       id="linearGradient4611">
      <stop
         style="stop-color:#002eff;stop-opacity:1;"
         offset="0"
         id="stop4607" />
      <stop
         style="stop-color:#002eff;stop-opacity:0;"
         offset="1"
         id="stop4609" />
    </linearGradient>
    <linearGradient
       inkscape:collect="always"
       id="linearGradient5604">
      <stop
         style="stop-color:#000080;stop-opacity:1;"
         offset="0"
         id="stop5600" />
      <stop
         style="stop-color:#000080;stop-opacity:0;"
         offset="1"
         id="stop5602" />
    </linearGradient>
    <linearGradient
       id="linearGradient5972"
       osb:paint="solid">
      <stop
         style="stop-color:#010000;stop-opacity:1;"
         offset="0"
         id="stop5970" />
    </linearGradient>
    <linearGradient
       inkscape:collect="always"
       id="linearGradient4503-2">
      <stop
         style="stop-color:#000000;stop-opacity:1;"
         offset="0"
         id="stop4499" />
      <stop
         style="stop-color:#010000;stop-opacity:0"
         offset="1"
         id="stop4501" />
    </linearGradient>
    <linearGradient
       inkscape:collect="always"
       xlink:href="#linearGradient4503-2"
       id="linearGradient4512"
       x1="2391.8333"
       y1="39.976192"
       x2="104.32143"
       y2="121.61905"
       gradientUnits="userSpaceOnUse"
       gradientTransform="matrix(1.0007037,0,0,1,-1.4132913,0)" />
    <linearGradient
       inkscape:collect="always"
       xlink:href="#linearGradient4503-2"
       id="linearGradient6038"
       x1="1994.2024"
       y1="96.38916"
       x2="3.8061616"
       y2="79.758209"
       gradientUnits="userSpaceOnUse" />
    <filter
       inkscape:label="Glowing Bubble"
       inkscape:menu="Ridges"
       inkscape:menu-tooltip="Bubble effect with refraction and glow"
       x="-0.25"
       y="-0.25"
       width="1.5"
       height="1.5"
       style="color-interpolation-filters:sRGB"
       id="filter4560">
      <feGaussianBlur
         stdDeviation="1"
         result="result1"
         id="feGaussianBlur4536" />
      <feGaussianBlur
         stdDeviation="10"
         result="result6"
         in="result1"
         id="feGaussianBlur4538" />
      <feComposite
         operator="atop"
         in="result6"
         in2="result1"
         result="result8"
         id="feComposite4540" />
      <feComposite
         operator="xor"
         result="fbSourceGraphic"
         in="result6"
         in2="result8"
         id="feComposite4542" />
      <feColorMatrix
         result="fbSourceGraphicAlpha"
         in="fbSourceGraphic"
         values="0 0 0 -1 0 0 0 0 -1 0 0 0 0 -1 0 0 0 0 2 0 "
         id="feColorMatrix4544" />
      <feGaussianBlur
         result="result0"
         in="fbSourceGraphicAlpha"
         stdDeviation="1"
         id="feGaussianBlur4546" />
      <feSpecularLighting
         specularExponent="35"
         specularConstant="1.5"
         surfaceScale="-2"
         lighting-color="#ffffff"
         result="result1"
         in="result0"
         id="feSpecularLighting4550">
        <feDistantLight
           azimuth="230"
           elevation="60"
           id="feDistantLight4548" />
      </feSpecularLighting>
      <feComposite
         operator="in"
         result="result2"
         in="result1"
         in2="fbSourceGraphicAlpha"
         id="feComposite4552" />
      <feComposite
         k3="1"
         k2="1"
         operator="arithmetic"
         result="result4"
         in="fbSourceGraphic"
         in2="result2"
         id="feComposite4554"
         k1="0"
         k4="0" />
      <feComposite
         operator="atop"
         in2="result4"
         result="result91"
         id="feComposite4556" />
      <feBlend
         mode="multiply"
         in2="result91"
         id="feBlend4558" />
    </filter>
    <filter
       inkscape:label="Glowing Bubble"
       inkscape:menu="Ridges"
       inkscape:menu-tooltip="Bubble effect with refraction and glow"
       x="-0.25"
       y="-0.25"
       width="1.5"
       height="1.5"
       style="color-interpolation-filters:sRGB"
       id="filter4586">
      <feGaussianBlur
         stdDeviation="1"
         result="result1"
         id="feGaussianBlur4562" />
      <feGaussianBlur
         stdDeviation="10"
         result="result6"
         in="result1"
         id="feGaussianBlur4564" />
      <feComposite
         operator="atop"
         in="result6"
         in2="result1"
         result="result8"
         id="feComposite4566" />
      <feComposite
         operator="xor"
         result="fbSourceGraphic"
         in="result6"
         in2="result8"
         id="feComposite4568" />
      <feColorMatrix
         result="fbSourceGraphicAlpha"
         in="fbSourceGraphic"
         values="0 0 0 -1 0 0 0 0 -1 0 0 0 0 -1 0 0 0 0 2 0 "
         id="feColorMatrix4570" />
      <feGaussianBlur
         result="result0"
         in="fbSourceGraphicAlpha"
         stdDeviation="1"
         id="feGaussianBlur4572" />
      <feSpecularLighting
         specularExponent="35"
         specularConstant="1.5"
         surfaceScale="-2"
         lighting-color="#ffffff"
         result="result1"
         in="result0"
         id="feSpecularLighting4576">
        <feDistantLight
           azimuth="230"
           elevation="60"
           id="feDistantLight4574" />
      </feSpecularLighting>
      <feComposite
         operator="in"
         result="result2"
         in="result1"
         in2="fbSourceGraphicAlpha"
         id="feComposite4578" />
      <feComposite
         k3="1"
         k2="1"
         operator="arithmetic"
         result="result4"
         in="fbSourceGraphic"
         in2="result2"
         id="feComposite4580"
         k1="0"
         k4="0" />
      <feComposite
         operator="atop"
         in2="result4"
         result="result91"
         id="feComposite4582" />
      <feBlend
         mode="multiply"
         in2="result91"
         id="feBlend4584" />
    </filter>
    <filter
       inkscape:label="In and Out"
       inkscape:menu="Shadows and Glows"
       inkscape:menu-tooltip="Inner colorized shadow, outer black shadow"
       style="color-interpolation-filters:sRGB"
       id="filter5473">
      <feGaussianBlur
         result="result0"
         in="SourceAlpha"
         stdDeviation="4"
         id="feGaussianBlur5467" />
      <feOffset
         dx="5"
         dy="5"
         result="result4"
         id="feOffset5469" />
      <feComposite
         in="SourceGraphic"
         in2="result4"
         operator="xor"
         result="result3"
         id="feComposite5471" />
    </filter>
    <filter
       inkscape:label="In and Out"
       inkscape:menu="Shadows and Glows"
       inkscape:menu-tooltip="Inner colorized shadow, outer black shadow"
       style="color-interpolation-filters:sRGB"
       id="filter5481">
      <feGaussianBlur
         result="result0"
         in="SourceAlpha"
         stdDeviation="4"
         id="feGaussianBlur5475" />
      <feOffset
         dx="5"
         dy="5"
         result="result4"
         id="feOffset5477" />
      <feComposite
         in="SourceGraphic"
         in2="result4"
         operator="xor"
         result="result3"
         id="feComposite5479" />
    </filter>
    <filter
       inkscape:label="In and Out"
       inkscape:menu="Shadows and Glows"
       inkscape:menu-tooltip="Inner colorized shadow, outer black shadow"
       style="color-interpolation-filters:sRGB"
       id="filter5489">
      <feGaussianBlur
         result="result0"
         in="SourceAlpha"
         stdDeviation="4"
         id="feGaussianBlur5483" />
      <feOffset
         dx="5"
         dy="5"
         result="result4"
         id="feOffset5485" />
      <feComposite
         in="SourceGraphic"
         in2="result4"
         operator="xor"
         result="result3"
         id="feComposite5487" />
    </filter>
    <linearGradient
       inkscape:collect="always"
       xlink:href="#linearGradient5604"
       id="linearGradient5606"
       x1="1999.176"
       y1="121.67119"
       x2="-2.1381562"
       y2="115.25672"
       gradientUnits="userSpaceOnUse" />
    <linearGradient
       inkscape:collect="always"
       xlink:href="#linearGradient4611"
       id="linearGradient4613"
       x1="387.00629"
       y1="-1460.5643"
       x2="412.66415"
       y2="793.05225"
       gradientUnits="userSpaceOnUse"
       gradientTransform="matrix(2.1376975,0,0,0.85779815,-10.690748,-410.47648)" />
  </defs>
  <sodipodi:namedview
     id="base"
     pagecolor="#ffffff"
     bordercolor="#666666"
     borderopacity="1.0"
     inkscape:pageopacity="0.0"
     inkscape:pageshadow="2"
     inkscape:zoom="0.12374369"
     inkscape:cx="3662.9141"
     inkscape:cy="924.7811"
     inkscape:document-units="mm"
     inkscape:current-layer="layer1"
     showgrid="false"
     inkscape:window-width="1920"
     inkscape:window-height="1018"
     inkscape:window-x="-8"
     inkscape:window-y="1072"
     inkscape:window-maximized="1"
     inkscape:snap-grids="true"
     inkscape:snap-bbox="true"
     inkscape:snap-nodes="false" />
  <metadata
     id="metadata5">
    <rdf:RDF>
      <cc:Work
         rdf:about="">
        <dc:format>image/svg+xml</dc:format>
        <dc:type
           rdf:resource="http://purl.org/dc/dcmitype/StillImage" />
        <dc:title></dc:title>
      </cc:Work>
    </rdf:RDF>
  </metadata>
  <g
     inkscape:label="Layer 1"
     inkscape:groupmode="layer"
     id="layer1"
     transform="translate(0,103)">
    <path
       style="fill:url(#linearGradient5606);fill-opacity:1;stroke-width:2.62238932;filter:url(#filter5489)"
       d="m -88.359861,183.08427 c 2.883378,-3.47427 1177.620761,-9.59125 1283.118761,-6.52961 4.6255,0.13424 7.4606,0.42032 7.7814,0.59201 0.6607,0.35362 64.9724,-1.29865 67.6196,0.0583 25.8664,2.63427 29.4761,1.80445 32.7122,-22.00172 0.9251,-5.04167 0.2499,-14.005 2.1,-17.80543 2.2517,-4.62543 2.0263,-11.95447 7.6607,-13.88605 3.161,0 7.228,5.16383 7.228,15.40572 0,4.94971 -3.0638,50.3581 -1.7268,52.86258 0.038,5.71478 7.8822,16.76942 13.3695,14.6674 9.9285,-68.42855 4.2187,-163.55082 9.351,-243.50644 1.5214,-19.97095 4.9315,-27.18994 7.2452,-15.33793 0.8021,4.10892 2.3065,63.52433 3.3432,132.03425 1.0366,68.50991 1.9327,126.46089 1.9912,128.77992 0.085,3.35556 2.522,4.05495 11.9373,3.42552 6.5069,-0.435 12.5614,0.39121 13.4543,1.83602 4.1129,6.65517 31.2833,-10.81757 31.2833,-20.1178 0,-2.0999 2.9502,-6.38315 6.556,-9.51835 3.6057,-3.1352 6.5559,-7.84768 6.5559,-10.47222 0,-2.62452 1.1801,-4.77186 2.6224,-4.77186 1.4423,0 2.6224,-1.5888 2.6224,-3.53068 0,-6.53303 8.2155,-20.07082 12.1801,-20.07082 4.8437,0 11.4104,6.28282 11.453,10.95783 0.018,1.90593 2.9676,8.60107 6.556,14.87813 3.5884,6.27706 6.5244,12.93176 6.5244,14.78823 0,1.85647 2.1706,6.05604 4.8237,9.3324 3.8308,4.73097 7.3603,5.91865 17.1488,5.77067 6.7788,-0.10253 13.7731,-1.38805 15.5428,-2.85683 3.0387,-2.52184 22.7329,-0.0933 33.2892,4.10506 6.7531,2.68578 35.2376,2.6916 38.6802,0.008 1.8029,-1.40547 3.278,-4.77107 3.278,-7.47908 0,-2.70804 0.936,-4.92369 2.0801,-4.92369 1.144,0 3.2092,-3.83525 4.5891,-8.52277 3.84,-13.04337 9.0535,-10.38505 15.0565,7.67715 3.8152,11.47967 6.9468,16.60859 10.7476,17.60253 7.3984,1.93469 9.3862,-2.38701 9.517,-20.6905 0.4011,-56.11934 5.2341,-227.73225 6.4478,-228.94586 4.4563,-4.45639 6.1867,8.81781 7.6242,58.49056 0.8766,30.2886 1.6924,89.58738 1.8128,131.77506 0.2009,70.31706 1.6205,86.77038 6.1095,70.80451 1.5423,-5.48564 1.8552,-5.56759 4.4511,-1.16578 1.8689,3.169 3.8061,3.9195 5.8585,2.2696 1.6864,-1.35572 7.1499,-3.33961 12.141,-4.40858 13.8936,-2.9757 39.1629,-23.5811 39.3626,-32.09749 0.042,-1.8029 1.1393,-3.27799 2.4377,-3.27799 1.2985,0 3.7767,-5.902 5.5072,-13.11554 2.7304,-11.38172 16.5504,-31.65252 19.4624,-28.54701 2.9017,3.0945 11.609,20.69739 14.3495,29.00937 1.7477,5.30042 6.4653,13.40282 10.4837,18.00532 6.9881,8.00379 7.8956,8.28714 20.8408,6.50672 7.4439,-1.02378 13.5344,-2.80451 13.5344,-3.95718 0,-3.51222 7.8004,-5.33252 12.56,-2.93102 2.4671,1.24477 10.7821,4.33072 18.4779,6.85765 13.5976,4.46486 14.1894,4.44925 20.9791,-0.55243 3.8427,-2.83079 8.1159,-8.88607 9.4959,-13.45616 1.38,-4.57009 3.4451,-8.30925 4.5892,-8.30925 1.144,0 2.08,-1.77011 2.08,-3.93358 0,-2.16347 1.6146,-3.93359 3.588,-3.93359 2.122,0 5.3426,6.16136 7.8821,15.07874 5.2774,18.53222 6.7128,20.66343 13.8597,20.57828 5.4295,-0.0648 5.7237,-1.46987 7.1708,-34.25218 0.83,-18.80158 2.1791,-66.63677 2.9981,-106.30041 1.7194,-83.26934 3.191,-101.17113 7.9271,-96.43505 2.3513,2.35136 6.0857,138.15622 6.3274,230.10481 0.067,25.444 0.3681,27.04064 4.0962,21.71795 2.9479,-4.20872 6.4799,-5.65269 13.2079,-5.39976 15.7437,-1.37043 31.4226,-8.01293 39.5729,-20.41853 2.275,-6.23044 -0.835,-18.11388 4.7789,-21.23465 5.8589,-2.89848 15.3523,0.32273 18.6872,5.94466 2.7049,4.55993 3.276,10.91374 -3.0353,15.61325 -1.4593,1.09547 -4.0047,2.67459 -6.3107,3.26572 -2.6849,0.68827 -3.7841,0.58749 -3.5181,-0.57036 3.8926,-3.86473 8.5533,-4.38279 10.2208,-7.79626 1.6976,-3.47517 0.2952,-9.82708 -7.9016,-11.63543 -1.9801,-0.46293 -4.4899,-0.43996 -6.0365,0.88022 -4.7463,4.4581 -0.5676,12.61703 -2.5939,16.49239 -8.8709,15.4212 -23.0859,26.97958 -45.773,27.44794 -7.8871,0.16285 -12.7002,7.92017 -12.7002,20.46895 0,8.30432 -3.6631,10.40326 -6.2754,3.59572 -0.8755,-2.28143 -1.7304,-35.61855 -1.8998,-74.0825 -0.1694,-38.46392 -1.1549,-81.73517 -2.1901,-96.15832 -1.6579,-23.10062 -1.9486,-19.82119 -2.4408,27.53509 -0.8329,80.14465 -3.2314,112.76274 -8.2918,112.76274 -1.377,0 -2.5036,-0.93158 -2.5036,-2.07017 0,-1.13859 -3.1934,-2.02364 -7.0965,-1.96679 -6.4729,0.0944 -7.5405,-1.37243 -12.1486,-16.68915 -4.8784,-16.2151 -5.1722,-16.57578 -8.5449,-10.48955 -1.921,3.46664 -3.5346,8.10758 -3.5857,10.31322 -0.051,2.20564 -2.5666,5.74587 -5.59,7.86717 -3.0233,2.1213 -7.3134,5.138 -9.5335,6.7038 -3.9352,2.77546 -18.7892,-0.39024 -23.3822,-4.98325 -3.3448,-3.34478 -28.3818,-1.68819 -33.5486,2.21975 -8.5359,6.45624 -19.2808,4.76677 -27.5979,-4.33937 -7.5818,-8.30097 -11.664,-15.62562 -19.9161,-35.73546 -2.5154,-6.12983 -5.1409,-11.14515 -5.8344,-11.14515 -3.7049,0 -11.3348,12.73403 -14.8264,24.7447 -2.1895,7.53145 -7.5468,17.42497 -11.9052,21.98562 -4.3584,4.56067 -7.9244,9.51214 -7.9244,11.00328 0,1.49114 -2.9804,3.84432 -6.6232,5.22928 -3.6427,1.38499 -7.3092,4.30596 -8.1477,6.49107 -0.8385,2.18513 -3.7415,3.97294 -6.4511,3.97294 -2.7097,0 -10.4368,1.47376 -17.1715,3.275 -9.9173,2.6525 -12.9153,4.87961 -15.772,11.71652 -1.9399,4.64284 -3.5271,11.42963 -3.5271,15.08173 0,3.65212 -1.18,6.6402 -2.6223,6.6402 -1.4424,0 -2.7667,-7.37547 -2.943,-16.38993 -0.1762,-9.01446 -0.6412,-22.29031 -1.0332,-29.50188 -0.392,-7.21157 -1.0327,-51.46439 -1.4239,-98.33959 -0.6486,-77.72644 -0.8769,-81.53475 -2.5939,-43.26943 -1.0354,23.07703 -2.1711,63.16043 -2.5237,89.07423 -0.685,50.33757 -2.7049,62.41855 -10.0068,59.85178 -8.9132,-3.13315 -15.9465,-12.19565 -19.1423,-24.66475 -3.3305,-12.99496 -7.5363,-17.18535 -7.5363,-7.50871 0,6.55487 -12.0626,25.20386 -17.7022,27.36801 -2.2846,0.87669 -5.2457,0.50214 -6.5802,-0.83232 -1.3345,-1.33448 -6.9813,-1.81535 -12.5485,-1.06865 -5.5671,0.74673 -12.2435,0.43246 -14.8363,-0.69837 -2.5927,-1.13082 -5.7234,-1.8273 -6.9569,-1.5477 -1.2336,0.27957 -3.7139,-0.71251 -5.5118,-2.20462 -1.9076,-1.58319 -8.6179,-2.03993 -16.1139,-1.09679 -7.0647,0.88891 -18.1553,1.77331 -24.6457,1.96535 l -11.8008,0.34917 -13.7903,-27.53508 c -7.5847,-15.1443 -14.7463,-27.85715 -15.9146,-28.25079 -1.1684,-0.39362 -3.3657,1.96653 -4.8828,5.24478 -11.653,25.17981 -17.4573,36.11795 -19.1658,36.11795 -1.0953,0 -3.3511,3.28234 -5.0129,7.2941 -3.3031,7.97448 -26.7469,22.28425 -32.7405,19.98431 -1.9434,-0.74576 -4.2709,0.56583 -5.1723,2.91463 -1.4653,3.81854 -2.4436,3.69749 -9.2425,-1.14381 -9.0555,-6.44803 -10.7746,-4.14495 -10.7746,14.43468 0,11.51806 -5.1341,16.95784 -5.3663,5.68589 -0.067,-3.24521 -0.4916,-14.1609 -0.9438,-24.2571 -0.4522,-10.0962 -0.9875,-47.63324 -1.1896,-83.41563 -0.2124,-37.59413 -1.3599,-64.44553 -2.7184,-63.60597 -1.293,0.79912 -2.5282,26.5354 -2.7449,57.19174 -0.3935,55.65981 -2.0586,96.54722 -4.0113,98.49995 -2.2635,2.26352 -6.6272,-2.72655 -6.6272,-7.57857 0,-3.03274 -2.599,-6.14303 -6.3131,-7.55513 -8.8763,-4.07855 -12.2918,-14.66111 -12.2454,-19.88498 -1.3313,-0.82282 1.7371,-46.11588 1.7371,-52.60629 0,-14.06579 -3.8776,-13.22694 -6.2074,1.34285 -0.3478,38.19919 -6.8046,40.26173 -24.4201,40.42193 -8.1324,0.074 -20.5906,-1.49207 -31.8477,-1.57209 -16.856,-0.11982 -35.6879,1.3157 -54.4828,0.33719 -201.86146,-5.62384 -1281.712694,1.73928 -1285.833581,5.70394 -0.57924,-2.40673 -0.05532,-2.64474 -0.18418,-4.12997 z M 1347.1715,55.59877 c 0,-12.88291 -1.2442,-12.51593 -3.7045,1.09267 -1.1256,6.22579 -0.7721,9.83396 0.9633,9.83396 1.5077,0 2.7412,-4.91698 2.7412,-10.92663 z m 282.3871,-34.14569 c -0.8372,-2.09195 -1.4586,-1.47058 -1.5844,1.58437 -0.1138,2.76442 0.506,4.31328 1.3774,3.44189 0.8713,-0.87142 0.9645,-3.13323 0.2069,-5.02626 z"
       id="path4599"
       inkscape:connector-curvature="0"
       sodipodi:nodetypes="cscccscsccccccscscsssscsscccscssccccccccccccscccccscccsssscccsccccccacscsccccscsccssccccccccccsccsccsccsscssccccscccccccsccccsccccscsccccsccscsscccscssccccc" />
    <g
       id="g4666"
       transform="translate(-429.87368,-325.05189)"
       style="fill:#000080;filter:url(#filter5481)">
      <path
         style="fill:#000080;fill-opacity:1;stroke:#000000;stroke-width:0.96321595;stroke-opacity:1"
         d="m 1718.094,459.50613 c -5.6815,-8.2533 -13.3262,-12.3664 -16.9354,-13.8909 -1.9851,-0.8384 -7.5769,-1.8932 -12.0488,-2.3543 -5.9847,-0.617 -8.6704,-1.3453 -10.1759,-2.7596 -1.1248,-1.0568 -2.6715,-1.9214 -3.437,-1.9214 -2.032,0 -3.4243,-2.7402 -4.6785,-9.208 -0.6103,-3.1471 -2.0044,-9.1724 -3.0981,-13.3898 0,0 -1.0993,-4.98 -0.5853,-7.4006 0.2327,-1.096 1.6037,-2.954 1.6037,-2.954 1.6538,-1.4776 2.9564,-2.1807 4.6774,-2.7208 7.4632,-2.3422 22.0642,-1.1708 23.3886,-1.9067 l -0.6656,-1.4718 c 0,0 -12.6992,-0.1229 -19.0417,-0.4032 -2.2926,-0.1013 -4.6327,-0.9768 -6.869,-0.462 -1.8486,0.4256 -3.3378,2.7193 -4.9395,2.8262 -3.8586,0.9564 -11.264,-0.9242 -11.4397,0.6692 -0.1039,0.942 8.7537,1.9359 9.9538,3.885 0.9051,1.47 -0.1282,6.6912 0.2081,8.4647 1.1856,6.2512 0.251,7.6971 -4.9746,7.6971 -2.3086,0 -4.8235,0.776 -6.4771,1.9985 -1.7989,1.33 -3.7915,1.8938 -5.9572,1.6856 -3.6365,-0.3496 -5.9313,-3.5257 -9.6213,-13.3163 -1.0982,-2.9137 -3.9588,-7.805 -6.357,-10.8696 -5.5471,-7.0886 -5.1673,-8.7144 1.8236,-7.8068 2.7904,0.3622 5.218,1.0283 5.3946,1.4802 0.1766,0.4518 2.3439,0.8232 4.8161,0.8252 5.3686,0 10.7559,2.89 10.7559,5.7615 0,1.0673 0.5779,1.9406 1.2843,1.9406 2.3428,0 2.4875,-1.1509 0.4852,-3.8592 -1.4691,-1.9869 -1.7366,-3.1131 -1.0368,-4.3637 0.7917,-1.4146 0.1506,-2.1087 -3.9884,-4.3182 -4.9625,-2.6492 -6.6826,-5.3435 -4.3366,-6.7933 0.9165,-0.5664 0.5264,-1.0638 -1.4128,-1.8011 -1.4734,-0.5601 -3.4861,-1.0185 -4.4727,-1.0185 -2.7227,0 -5.3679,-4.0839 -6.6946,-10.3359 -1.0292,-4.8496 -0.967,-6.4005 0.4527,-11.2841 0.9052,-3.1139 1.6602,-7.8672 1.6776,-10.5628 0.019,-2.9318 0.6139,-5.5783 1.4805,-6.5866 1.4824,-1.7248 5.0608,-2.0964 8.2178,-0.8533 2.2672,0.8926 11.3107,11.6962 15.0275,17.9518 3.5035,5.8968 9.2865,11.5017 12.7572,12.3642 1.4216,0.3532 2.8277,1.3998 3.1247,2.3256 1.1305,3.5244 5.2661,7.0548 9.863,8.4199 5.3928,1.6015 9.3804,4.8227 8.5734,6.9257 -1.01,3.0556 -0.2361,8.1129 0.9126,10.9284 1.44,2.7843 5.0335,4.184 4.0303,1.5697 -0.2725,-0.7102 -0.2105,-1.6943 0.1378,-2.1868 0.9904,-1.4006 5.7775,-3.2643 8.3844,-3.2643 2.956,0 3.3025,-3.4248 0.4384,-4.3338 -1.0582,-0.3359 -2.1809,-1.6335 -2.4946,-2.8837 -0.3138,-1.2501 -1.3984,-3.0222 -2.4103,-3.9379 -1.0119,-0.9158 -1.8398,-2.2787 -1.8398,-3.0288 0,-1.3726 -9.0614,-12.1974 -15.5108,-18.5291 -3.9346,-3.8629 -14.8175,-17.8155 -17.7201,-22.7185 -5.6347,-6.1325 -6.7471,-13.9148 -8.9826,-20.4916 -0.7615,-2.6081 -9.9019,-14.4948 -13.4122,-17.9836 -2.7471,-2.7302 -2.718,-3.4879 0.2408,-6.2675 1.3244,-1.2442 2.408,-2.994 2.408,-3.8883 0,-0.8944 1.2687,-3.2225 2.8193,-5.1736 2.8608,-3.6 5.3081,-11.8359 4.2985,-14.4667 -0.3043,-0.7929 -1.2838,-1.6735 -2.1766,-1.9569 -0.8929,-0.2834 -4.3342,-3.7384 -7.6472,-7.6778 -7.1297,-8.4773 -9.7671,-9.6601 -20.0669,-8.9991 -5.1524,0.3307 -7.6513,0.9564 -9.1173,2.2832 -3.0091,2.7232 -4.7119,6.5874 -4.7125,10.6941 -2e-4,2.0129 -0.8671,5.9401 -1.9264,8.7271 -1.0592,2.787 -1.9259,6.1747 -1.9259,7.5283 -1.385,7.2933 -8.5929,10.7217 -13.4851,15.4019 -12.1943,13.9521 -11.7753,17.0708 -17.3378,32.7809 -4.4462,14.5166 -1.3901,4.4061 -6.3275,20.3608 -1.361,2.877 -2.9,7.8718 -3.4198,11.0995 -0.5198,3.2278 -1.2012,6.2832 -1.5144,6.7898 -0.3131,0.5066 -0.4921,3.7256 -0.3978,7.1533 0.094,3.4277 -0.3069,6.8085 -0.8915,7.5129 -0.7876,0.949 -0.6904,1.8589 0.375,3.5125 2.6729,4.148 2.9023,8.8298 0.6492,13.2462 -2.0237,3.9667 -2.029,4.0984 -0.2871,7.1089 0.9762,1.687 3.9253,4.4353 6.5535,6.1073 4.7424,3.0169 6.7698,4.8109 14.1592,12.529 3.9198,4.0941 4.1037,6.1034 0.5585,6.1034 -1.6574,0 -1.7884,0.2399 -0.7884,1.4448 0.6595,0.7947 2.1986,1.4448 3.4204,1.4448 2.1526,0 5.2485,2.2367 5.2485,3.7918 0,0.4205 -0.917,1.9304 -2.038,3.3555 -1.9675,2.5012 -1.9765,2.6359 -0.2627,3.889 1.4669,1.0727 1.6062,1.7746 0.8018,4.0407 -0.8718,2.4558 -1.4235,2.7443 -5.2758,2.7591 -5.0692,0.02 -6.2558,1.6976 -1.6914,2.3915 3.5844,0.5448 4.6021,3.1458 2.4062,6.149 -1.7254,2.3596 -4.7969,0.851 -6.6109,-3.2472 -0.8493,-1.9188 -1.9805,-2.9018 -3.3394,-2.9018 -1.1303,0 -2.581,-0.6338 -3.2239,-1.4085 -2.2657,-2.73 -11.7578,-5.5192 -18.8129,-5.5281 -18.4978,-0.023 -34.4571,10.06252 -41.4889,35.62492 -0.696,2.53 -1.6393,4.8312 -2.0965,5.1137 -0.457,0.2825 -3.1146,2.1477 -3.129,3.5733 -0.015,1.5674 -1.266,3.9247 -3.1628,5.9633 -2.9008,3.1176 -3.5691,3.373 -8.8837,3.3952 81.8283,-2.6429 146.2229,2.38882 220.2425,-0.52568 7.1073,-0.7497 10.1225,-28.14184 0,-43.58304 z m -188.9037,39.67952 c -0.8045,-0.3088 -1.2459,-1.1265 -0.9808,-1.8173 0.265,-0.6908 -0.8459,-2.2015 -2.4689,-3.3571 -2.5357,-1.8056 -2.9508,-2.7044 -2.9508,-6.3892 0,-8.6635 7.5002,-17.63412 15.6414,-23.88392 8.2423,-6.3274 19.199,-8.5515 26.6963,-5.4189 4.8907,2.0435 5.9353,4.4226 3.3724,7.6808 -1.8838,2.3948 -1.9181,2.7046 -0.4604,4.1622 0.9611,0.9611 1.5748,1.1322 1.5748,0.4391 0,-2.2888 3.6587,-3.2799 6.5632,-1.7779 4.4871,2.3204 5.2582,3.8035 4.1202,7.9249 -0.8093,2.9309 -0.7169,3.9442 0.48,5.2667 1.0591,1.1703 1.2988,2.6143 0.8399,5.0601 -0.5445,2.9026 -0.2612,3.7755 1.8647,5.7457 4.1596,3.8549 3.3375,5.1601 -3.7269,5.9166 -13.9835,0.7637 -31.9993,5.44042 -42.5285,-0.92298 -1.2218,-0.6539 -2.052,-0.5083 -2.8952,0.5078 -1.2596,1.5177 -2.7736,1.7719 -5.1414,0.8633 z m 129.984,0.27878 c -0.011,-0.3787 -0.4351,-3.5651 -0.9438,-7.0808 -1.0306,-7.1238 0.1684,-12.8296 4.4887,-21.361 1.8663,-3.6857 2.78,-4.5743 4.4568,-4.3345 3.0875,0.4415 5.5984,10.1109 5.9936,23.0805 l 0.3125,10.2571 -5.4587,0.8793 c -5.0644,0.8159 -8.8034,0.2071 -8.8491,-1.4406 z m -35.3647,1.7692 c 0.1585,-0.2922 0.875,-1.6998 1.5922,-3.1279 0.7482,-1.4901 2.881,-3.2277 5.005,-4.0775 3.4198,-1.3683 3.6915,-1.7568 3.573,-5.1091 -0.1576,-4.4575 3.87,-14.0918 8.9341,-21.371 17.8062,-25.5955 19.4797,-27.1863 22.4848,-21.375 2.3111,4.4691 1.8244,7.1527 -2.2242,12.2627 -4.7811,6.0345 -7.0108,10.4981 -11.0836,22.1884 -1.8171,5.2155 -4.2607,12.0834 -5.4304,15.262 l -2.1267,5.7793 -10.5062,0.05 c -5.7785,0.027 -10.3766,-0.1894 -10.218,-0.4816 z m 84.7553,-3.8316 c -1.9131,-0.5487 -3.3241,-0.5477 -3.6642,0 -0.899,1.4546 -4.289,-0.9047 -4.289,-2.985 0,-1.1387 -1.4834,-2.8169 -3.76,-4.2541 -2.9003,-1.8308 -4.0909,-3.4304 -5.2073,-6.9954 -2.401,-7.6678 -3.524,-15.7222 -3.4312,-24.6085 l 0.088,-8.4282 3.988,0.01 c 4.9906,0.011 12.7182,4.2749 16.9348,9.3435 6.2822,7.5516 11.5063,21.9879 9.6878,26.7711 -0.5291,1.3917 -2.9249,4.4647 -2.9249,6.2675 0,2.5853 1.7122,3.1137 -0.3771,4.2471 -3.2152,1.7443 -3.2269,1.7253 -7.0448,0.6303 z m -26.801,-4.887 c -2.8071,0 -6.0313,-7.0969 -8.174,-17.9922 -1.1648,-5.9225 -1.8596,-11.7967 -1.544,-13.0539 0.5827,-2.322 7.3896,-7.4826 9.8695,-7.4826 0.7471,0 1.4095,0.5418 1.472,1.204 0.063,0.6623 0.2159,2.5044 0.3411,4.0937 0.1253,1.5893 1.3693,7.2241 2.7648,12.5218 1.3954,5.2977 2.5422,10.8094 2.5484,12.2483 0.016,3.7707 -2.9667,9.5962 -4.5942,8.9717 -0.7322,-0.281 -1.9398,-0.5108 -2.6836,-0.5108 z m -66.3968,-2.9029 c 0,-0.7874 0.9752,-1.5701 2.1672,-1.7394 2.1083,-0.2994 3.0086,1.5534 1.4918,3.0702 -1.1222,1.1222 -3.659,0.1995 -3.659,-1.3308 z m -10.8844,-12.7012 c -1.9118,-1.9118 -1.3186,-4.1409 1.6948,-6.3688 3.8173,-2.8222 4.0861,-2.7008 3.3283,1.5045 -0.9874,5.4801 -2.7247,7.1625 -5.0231,4.8643 z m -17.3208,-10.254 c -0.2761,-0.8289 0.1871,-1.176 1.2852,-0.9632 0.9442,0.1831 1.9109,0.916 2.1483,1.6288 0.276,0.829 -0.1871,1.1761 -1.2852,0.9632 -0.9442,-0.183 -1.911,-0.916 -2.1483,-1.6288 z m 83.5901,-20.9285 c 0,-0.897 0.6554,-1.3884 1.6058,-1.2041 2.4165,0.4687 2.7483,2.7195 0.4009,2.7195 -1.1832,0 -2.0067,-0.6219 -2.0067,-1.5154 z m -21.2447,-5.2375 c -0.3107,-1.8485 -1.3315,-4.8234 -2.2686,-6.6111 -2.3093,-4.4056 -1.0234,-5.5386 8.487,-7.4781 8.6373,-1.7613 10.7692,-1.0035 8.2696,2.9398 -10.024,15.8139 -13.2825,18.3216 -14.488,11.1494 z m -51.4706,-11.927 c -1.3809,-2.035 -2.381,-3.7803 -2.2223,-3.8785 0.1586,-0.098 1.506,-0.9411 2.9941,-1.873 5.3892,-3.3749 9.7069,-0.3829 7.4189,5.1409 -1.0121,2.4434 -4.5058,5.2821 -5.4942,4.4641 -0.1021,-0.084 -1.3155,-1.8186 -2.6965,-3.8535 z"
         id="path4668"
         inkscape:connector-curvature="0"
         sodipodi:nodetypes="ccccsccacaccaacsscscccccccsscccccscccccccccccccscccscccccscccccccccccccccscccccscsscccccccscccccccccccsscccsccccccccccccccccccccccccccccccccsscccccccscccsscscccccsscsscccccscccscsscccccccscccc" />
    </g>
    <rect
       style="opacity:0;fill:#c8b7b7;fill-opacity:1;fill-rule:nonzero;stroke:none;stroke-width:0.963;stroke-linejoin:round;stroke-miterlimit:4;stroke-dasharray:none;stroke-opacity:1;paint-order:stroke fill markers"
       id="rect4549"
       width="2390.4585"
       height="656.41394"
       x="-138.98015"
       y="-220.43379" />
    <rect
       style="opacity:0.419;fill:url(#linearGradient4613);fill-opacity:1;fill-rule:nonzero;stroke:none;stroke-width:1.30404317;stroke-linejoin:round;stroke-miterlimit:4;stroke-dasharray:none;stroke-opacity:1;paint-order:stroke fill markers"
       id="rect4553"
       width="2024.8337"
       height="399.83517"
       x="-10.690784"
       y="-113.526" />
  </g>
</svg>
